<?xml version="1.0" encoding="UTF-8"?>
<svg version="1.1" viewBox="0 0 1600 1600" width="1280" height="1280" xmlns="http://www.w3.org/2000/svg">
<path transform="translate(654 28.7)" d="m0 0h2.61c13 0.04 25.6 0.62 38.3 3.31 0.71 0.14 1.42 0.28 2.15 0.42 56 11.1 104 45.6 135 92.6 6.08 9.32 11.1 19.3 15.6 29.5 0.69 1.58 1.4 3.15 2.14 4.7 3.93 9.09 3.52 18.1 3.49 27.9 0.01 1.91 0.02 3.83 0.03 5.74 0.03 5.16 0.04 10.3 0.04 15.5 0 5.41 0.02 10.8 0.05 16.2 0.04 10.2 0.06 20.4 0.07 30.7 0.02 11.6 0.06 23.3 0.1 35 0.08 24 0.13 47.9 0.17 71.8 12.4 0.1 24.8 0.15 37.2 0.13 5.75-0.01 11.5 0 17.3 0.05 5.56 0.05 11.1 0.06 16.7 0.02 2.12 0 4.24 0.01 6.36 0.04 11.3 0.65 11.3 0.65 21.3-3.43 1.82-2.55 3.03-4.9 4.19-7.81 0.72-1.14 1.46-2.26 2.25-3.36 2.04-3.17 4.09-6.34 6.12-9.51 0.73-1.13 1.46-2.25 2.19-3.38 0.69-1.07 1.38-2.14 2.09-3.24 0.62-0.96 1.24-1.93 1.88-2.92 1.3-2.29 2.15-3.99 2.47-6.59-1.18-1.86-1.18-1.86-3-3.56-12.3-13.3-19.9-32.3-21-50.4-0.1-1.45-0.1-1.45-0.2-2.93-0.5-14.5 2.75-29 9.2-42.1 0.42-0.88 0.83-1.77 1.26-2.68 10.9-21.7 30-37.3 52.7-45.3 6.84-1.95 13.9-3.59 21-4 1.11-0.06 2.22-0.13 3.37-0.19 15.2-0.45 30 2.41 43.6 9.19 0.93 0.45 1.86 0.91 2.82 1.37 21.1 10.9 36.6 29.6 44.3 51.9 7.54 24.5 5.99 49.3-5.89 72.2-12 22-31.3 37.8-55.3 44.8-17.2 4.61-34.7 3.88-51.9-0.25-0.22 0.65-0.45 1.31-0.67 1.98-1.8 4.08-4.17 7.66-6.58 11.4-3.55 5.52-7.04 11.1-10.4 16.7-0.61 1.02-1.22 2.04-1.85 3.08-1.17 1.97-2.34 3.95-3.51 5.92-5.11 8.54-10.2 16.5-20 19.9-3.35 0.77-6.46 1.13-9.89 1.16-0.96 0.01-1.92 0.02-2.9 0.03-1.04 0.01-2.08 0.01-3.15 0.02-1.12 0.01-2.24 0.02-3.4 0.03-3.62 0.03-7.25 0.05-10.9 0.08l-6.72 0.06c-8.29 0.06-16.6 0.12-24.9 0.19-18.5 0.14-37.1 0.28-56.2 0.43v115c38.8 0.11 77.5 0.21 116 0.26 4.57 0 9.15 0.01 13.7 0.02h2.76c14.8 0.02 29.5 0.06 44.3 0.11 15.1 0.04 30.3 0.07 45.4 0.08 9.35 0.01 18.7 0.03 28 0.07 6.41 0.03 12.8 0.04 19.2 0.03 3.7 0 7.4 0 11.1 0.03 4.01 0.03 8.01 0.02 12 0 1.17 0.02 2.34 0.03 3.55 0.05 6.34 0.01 6.34 0.01 11.7-3.03 0.93-1.29 0.93-1.29 1.89-2.62 1.17-1.24 1.17-1.24 2.36-2.51 4.9-5.36 9.6-10.8 14.2-16.5 2.87-3.49 5.81-6.91 8.78-10.3 0.55-0.63 1.1-1.27 1.67-1.92 1.12-1.29 2.24-2.57 3.36-3.86 6.12-7.04 12.2-14.1 18.1-21.3 4.23-5.22 8.62-10.3 13-15.4 0.53-0.61 1.06-1.21 1.6-1.83 0.7-0.8 0.7-0.8 1.41-1.62 0.75-0.87 0.75-0.87 1.51-1.77l2.06-2.06c2.63-4 2.47-7 2.39-11.7v-2.63c0-2.86-0.03-5.72-0.06-8.58-0.01-1.99-0.02-3.98-0.02-5.97-0.01-5.23-0.05-10.4-0.1-15.7-0.04-5.33-0.06-10.7-0.08-16-0.04-10.5-0.11-20.9-0.19-31.4-0.54-0.22-1.08-0.44-1.63-0.66-2.48-1.01-4.96-2.04-7.43-3.06-0.85-0.34-1.7-0.69-2.57-1.04-7.59-3.16-13.9-7.1-20.4-12.2-1.32-1.04-1.32-1.04-2.67-2.11-18.5-15.7-28.8-37.9-31.1-61.9-1.76-23.4 6.2-46.7 21-64.7 16.1-18.4 37.2-30 61.8-32.3 25.7-1.51 49.4 6.12 68.9 23.2 16.2 14.8 27.9 36 29.2 58.2 1.03 27.8-6.33 51.6-25.2 72.6-9.98 10.6-22.6 17.6-36.2 22.7-0.71 0.26-1.42 0.52-2.15 0.8-0.8 0.29-0.8 0.29-1.61 0.59-0.01 1.21-0.02 2.42-0.03 3.66-0.07 11.4-0.16 22.8-0.26 34.2-0.05 5.86-0.1 11.7-0.13 17.6-0.04 5.66-0.09 11.3-0.14 17-0.02 2.16-0.03 4.32-0.05 6.47-0.01 3.03-0.04 6.06-0.07 9.08-0.01 0.89-0.01 1.77-0.01 2.68-0.11 8.43-1.01 15.5-6.37 22.3-1.21 1.53-1.21 1.53-2.45 3.09-2.99 3.57-6.08 7.04-9.24 10.5-4.75 5.26-9.17 10.8-13.5 16.4-1.07 1.37-1.07 1.37-2.16 2.77-0.64 0.83-1.28 1.66-1.93 2.51-0.54 0.6-1.08 1.19-1.63 1.8h-2c-0.22 0.53-0.44 1.06-0.67 1.6-1.82 3.28-4.24 5.97-6.71 8.78-1.08 1.25-2.17 2.51-3.26 3.76-0.56 0.64-1.11 1.28-1.69 1.94-2.63 3.02-5.25 6.07-7.86 9.11-0.75 0.88-0.75 0.88-1.52 1.77-2.96 3.46-5.87 6.95-8.73 10.5-5.69 7-11.6 13.8-17.6 20.6-0.46 0.52-0.91 1.04-1.38 1.58-1.2 1.38-2.41 2.74-3.62 4.11-0.66 0.75-1.32 1.49-2 2.26-5.91 6.06-11.1 8.23-19.6 8.46-0.65 0.02-1.3 0.04-1.98 0.06-2.23 0.06-4.46 0.11-6.69 0.15-0.8 0.02-1.61 0.04-2.44 0.06-26.5 0.6-52.9 0.45-79.4 0.43-7.85-0.01-15.7-0.01-23.6-0.01-14-0.01-28-0.01-42-0.02-13.6-0.01-27.1-0.02-40.7-0.02h-2.55c-4.23 0-8.45-0.01-12.7-0.01-34.8-0.01-69.6-0.03-104-0.05 0.16 0.58 0.32 1.17 0.49 1.77 0.8 3.52 0.64 7.08 0.62 10.7v2.58c0 2.8-0.01 5.6-0.01 8.4-0.01 1.95-0.01 3.89-0.01 5.84 0 5.11-0.01 10.2-0.02 15.4-0.01 5.22-0.02 10.4-0.02 15.7-0.01 10.2-0.03 20.5-0.05 30.7 40.1 0.03 80.1 0.04 120 0.05 4.73 0 9.46 0.01 14.2 0.01h2.86c15.2 0 30.5 0.01 45.7 0.02 15.6 0.01 31.3 0.01 47 0.02 9.65 0 19.3 0 29 0.01 6.62 0.01 13.2 0.01 19.9 0.01h11.5c4.14 0.01 8.29 0.01 12.4 0 1.2 0.01 2.39 0.01 3.63 0.01 12 0.18 12 0.18 23.7-2.13 0.68-1.32 1.34-2.66 2-4 1.48-1.72 3-3.41 4.56-5.06 3.41-3.67 6.68-7.4 9.81-11.3 3.87-4.8 7.98-9.3 12.2-13.8 3.93-4.21 7.57-8.6 11.2-13.1 2.94-3.54 6.06-6.9 9.19-10.3 2.97-3.21 5.79-6.5 8.53-9.91 3.84-4.78 7.93-9.26 12.1-13.7 3.93-4.21 7.57-8.6 11.2-13.1 2.94-3.54 6.06-6.9 9.19-10.3 2.97-3.21 5.79-6.5 8.53-9.91 3.83-4.78 7.91-9.26 12.1-13.7 3.24-3.47 6.26-7.05 9.2-10.8 6.59-8.12 11.9-11.6 22.2-13.1 3.29-0.26 6.56-0.31 9.85-0.32 0.93-0.01 1.86-0.02 2.82-0.03 3.03-0.03 6.06-0.04 9.09-0.06 2.11-0.02 4.23-0.04 6.34-0.06 5.54-0.05 11.1-0.09 16.6-0.13 5.67-0.04 11.3-0.09 17-0.14 11.1-0.1 22.2-0.18 33.3-0.26 0.59-1.51 0.59-1.51 1.19-3.06 0.53-1.35 1.06-2.69 1.6-4.04 0.25-0.67 0.51-1.33 0.78-2.01 8.79-22.2 25.7-39.3 47.1-49.5 23.7-9.64 48.8-10.1 72.8-0.91 23 10.2 40.1 28.5 50 51.5 4.13 11 6.16 21.1 6.02 32.9-0.01 1.31-0.02 2.62-0.03 3.98-0.21 9.98-1.56 18-5.53 27.1-0.38 1.03-0.75 2.07-1.13 3.13-8.45 22.6-25.6 39.1-47.2 49.3-21.6 9.3-46.4 10.7-68.6 2.79-24.1-9.65-42.7-26.3-53.1-50.3-0.71-1.9-1.41-3.8-2.09-5.71-0.36-0.99-0.72-1.98-1.09-3-0.27-0.75-0.54-1.51-0.82-2.29-10.8-0.28-21.5-0.49-32.3-0.62-5-0.06-10-0.15-15-0.28-4.83-0.13-9.66-0.21-14.5-0.24-1.83-0.02-3.67-0.06-5.5-0.13-10.8-0.62-10.8-0.62-20.2 3.83-2.87 2.89-5.19 6.1-7.5 9.44-1.47 1.82-2.95 3.64-4.44 5.44-0.72 0.9-1.44 1.79-2.18 2.71-3.18 3.81-6.55 7.4-9.94 11-3.92 4.21-7.56 8.6-11.2 13.1-3.42 4.14-7.08 8.06-10.7 12-5.65 6.11-11 12.5-16.4 18.8-2.88 3.41-5.81 6.75-8.82 10-3.01 3.31-5.88 6.69-8.69 10.2-3.88 4.82-8.01 9.34-12.2 13.8-3.96 4.25-7.64 8.67-11.3 13.2-3.01 3.67-6.21 7.17-9.42 10.7-1.8 1.88-1.8 1.88-2.75 3.99h-2c-0.26 0.58-0.52 1.16-0.79 1.75-1.32 2.44-2.75 4.23-4.65 6.25-0.6 0.66-1.19 1.32-1.81 2-8.49 6.17-17.9 6.58-28 6.52-1.42 0.01-2.83 0.02-4.25 0.02-3.86 0.02-7.73 0.02-11.6 0.01-4.17 0-8.35 0.01-12.5 0.03-7.22 0.02-14.4 0.03-21.7 0.03-10.4 0-20.9 0.02-31.3 0.04-17 0.05-33.9 0.07-50.9 0.08-16.5 0.01-32.9 0.03-49.4 0.06-1.02 0.01-2.05 0.01-3.1 0.01-8.03 0.02-16 0.03-24.1 0.05-39.3 0.08-78.6 0.11-118 0.15v171c23.8-0.01 47.6-0.02 72.2-0.03 15.1-0.01 30.2-0.01 45.2-0.02h23.8 3.01c16-0.01 32-0.02 48-0.02 16.4-0.01 32.9-0.02 49.3-0.02 10.1 0 20.3-0.01 30.4-0.02h20.9c4.02 0 8.03 0 12-0.01h11c1.94 0 3.89 0 5.84-0.01 25.1 0.05 25.1 0.05 34.6 8.48 2.93 3.01 5.49 6.33 8.11 9.61 2.61 3.18 5.33 6.22 8.12 9.23 0.71 0.77 0.71 0.77 1.43 1.55 0.46 0.49 0.92 0.99 1.4 1.5 4.22 4.57 8.28 9.28 12.3 14 1.04 1.21 2.07 2.42 3.1 3.63 0.52 0.61 1.04 1.21 1.58 1.84 3.03 3.54 6.1 7.03 9.23 10.5 3.03 3.33 5.92 6.75 8.76 10.2 3.91 4.84 8.02 9.44 12.2 14 4.14 4.52 8.13 9.14 12.1 13.8 1.03 1.2 2.06 2.41 3.09 3.62 0.52 0.61 1.04 1.21 1.58 1.84 3.03 3.54 6.1 7.03 9.23 10.5 3 3.29 5.84 6.66 8.63 10.1 3.9 4.84 8.04 9.39 12.3 13.9 3.83 4.08 7.19 8.36 10.4 13 4.25 3.87 11.2 2.96 16.6 2.96 0.73 0 1.45 0.01 2.2 0.01h7.15 4.99c3.48 0 6.96 0 10.4-0.01 4.46 0 8.92 0 13.4 0.01h10.3 4.93c2.3 0 4.59 0 6.88-0.01h3.96c3.18 0.02 3.18 0.02 6.16-1.13 1-2.21 1.83-4.34 2.62-6.62 9.08-24 25.9-40.9 48.9-51.9 22.9-9.7 48.7-9.22 71.6-0.14 22.3 9.35 39.3 26.7 48.8 48.9 9.36 24.7 9.82 47.9-0.84 72.3-8.61 18.6-21.5 32.3-39.1 42.5-0.82 0.49-1.64 0.99-2.48 1.49-19.7 10.9-45.1 12.4-66.5 6.51-23.1-6.72-41.8-21.4-54.4-42-3.6-6.62-6.9-13.7-8.63-21-1.24 0-2.47 0-3.74-0.01-11.6-0.04-23.3-0.09-34.9-0.17-5.98-0.04-12-0.07-18-0.09-5.78-0.01-11.6-0.05-17.3-0.1-2.2-0.01-4.4-0.02-6.6-0.02-3.09 0-6.18-0.03-9.27-0.06-0.9 0-1.81 0.01-2.74 0.01-7.43-0.12-13.4-2.09-19.2-6.75-0.75-0.78-1.49-1.56-2.25-2.37-0.84-0.88-1.68-1.76-2.54-2.67-3.14-3.53-6.11-7.16-9.05-10.8-2.69-3.25-5.52-6.34-8.41-9.42-4.46-4.76-8.64-9.66-12.7-14.8-2.49-3.01-5.11-5.89-7.77-8.75-4.27-4.59-8.26-9.33-12.2-14.2-2.51-3.02-5.14-5.9-7.81-8.78-4.27-4.59-8.26-9.33-12.2-14.2-2.95-3.55-6.08-6.92-9.23-10.3-2.97-3.21-5.78-6.5-8.52-9.91-3.37-4.19-6.89-8.15-10.6-12.1-3.69-3.94-7.24-7.92-10.6-12.1-0.67-0.83-1.35-1.65-2.05-2.5-1.52-1.89-3.01-3.81-4.46-5.76-4.56-5.76-4.56-5.76-10.9-9.12-3.57-0.38-6.98-0.41-10.6-0.32-1.36-0.01-2.71-0.01-4.07-0.03-3.71-0.02-7.41 0.02-11.1 0.08-4 0.04-8.01 0.03-12 0.02-6.94-0.01-13.9 0.03-20.8 0.09-10 0.09-20 0.12-30.1 0.13-16.3 0.03-32.5 0.1-48.8 0.2-15.8 0.1-31.6 0.18-47.4 0.23-0.98 0-1.95 0-2.95 0.01-4.89 0.01-9.78 0.03-14.7 0.04-40.5 0.11-81 0.32-122 0.55l-1 90c9.7-0.02 19.4-0.04 29.4-0.06 31.1-0.07 62.1-0.11 93.2-0.14 4.83-0.01 9.65-0.01 14.5-0.02h2.91c15.6-0.02 31.1-0.05 46.6-0.09 16-0.03 31.9-0.06 47.9-0.06 9.85-0.01 19.7-0.03 29.5-0.06 6.76-0.02 13.5-0.03 20.3-0.02 3.9 0 7.79 0 11.7-0.02 3.57-0.02 7.14-0.02 10.7-0.01 1.9 0 3.79-0.02 5.69-0.03 8.58 0.06 14.8 1.46 21.6 6.92 0.83 0.88 1.67 1.75 2.53 2.66 0.69 0.71 0.69 0.71 1.39 1.44 3.87 4.08 7.42 8.41 10.9 12.8 2.15 2.64 4.38 5.17 6.68 7.68 3.84 4.23 7.46 8.59 11.1 13 4.21 5.13 8.56 10.2 12.9 15.2 2.52 2.93 5.03 5.87 7.55 8.8 1 1.17 2 2.34 3 3.5 2 2.34 4 4.67 6 7 0.74 0.87 0.74 0.87 1.5 1.75 1 1.17 2 2.33 2.99 3.5 2.52 2.94 5.04 5.87 7.58 8.79 22.1 25.5 22.1 25.5 22 43.1v2.9c0 3.15-0.01 6.3-0.01 9.45-0.01 2.18-0.01 4.37-0.01 6.56 0 5.75-0.01 11.5-0.02 17.2-0.01 5.88-0.02 11.8-0.02 17.6-0.01 11.5-0.03 23-0.05 34.5 0.82 0.34 1.64 0.68 2.48 1.03 1.08 0.45 2.15 0.89 3.26 1.35 1.6 0.67 1.6 0.67 3.24 1.34 10.9 4.61 20.3 10.3 29 18.3 0.7 0.63 1.41 1.25 2.13 1.89 15.7 14.7 26.3 37.6 27.1 59.1 0.49 26-5.83 49.7-24.2 68.9-1.35 1.37-2.71 2.72-4.08 4.07l-2.24 2.24c-18.3 17.3-42.6 23.8-67.3 23.1-19.2-0.93-36.7-8.14-51.5-20.3-0.84-0.67-1.68-1.35-2.54-2.04-15.1-12.8-24.7-29.9-29.5-49-0.23-0.85-0.45-1.7-0.68-2.58-4.97-22.2 0.07-46.3 11.7-65.5 1.29-1.99 2.61-3.97 3.94-5.94 0.77-1.17 0.77-1.17 1.55-2.36 1.08-1.59 2.25-3.13 3.45-4.64h2c0.24-0.57 0.48-1.14 0.73-1.73 8.01-14.3 28.4-22.1 43.3-26.3 0.05-11.2 0.06-22.3 0.02-33.5-0.02-5.19-0.02-10.4 0.01-15.6 0.03-5.02 0.02-10-0.02-15-0.01-1.91 0-3.81 0.02-5.72 0.37-12.4 0.37-12.4-4.94-23.2-1.33-1.35-2.69-2.66-4.09-3.93-0.82-0.93-1.63-1.85-2.47-2.81-0.67-0.72-1.34-1.44-2.03-2.19-2.96-3.24-5.78-6.54-8.5-10-3.4-4.31-7.02-8.37-10.7-12.4-2.34-2.63-4.57-5.33-6.78-8.07-2.91-3.59-5.89-7.08-9-10.5-3.03-3.32-5.93-6.7-8.75-10.2-3.82-4.71-7.73-9.34-11.7-13.9-0.57-0.67-1.14-1.33-1.72-2.01-0.54-0.62-1.07-1.24-1.62-1.88-0.48-0.55-0.95-1.1-1.44-1.67-1.79-1.84-2.93-2.3-5.49-2.44h-2.8c-1.07 0-2.13 0-3.23-0.01-1.18 0.01-2.37 0.01-3.58 0.01h-3.78c-3.47 0-6.95 0-10.4 0.01h-11.2c-6.49 0-13 0-19.5 0.01-9.38 0-18.8 0.01-28.1 0.01-15.2 0-30.4 0.01-45.6 0.02-14.8 0.01-29.6 0.01-44.3 0.02h-2.76-13.7c-37.9 0.01-75.8 0.03-114 0.05 0.16 0.62 0.32 1.23 0.49 1.86 0.56 2.35 0.61 4.39 0.59 6.8-0.01 0.93-0.01 1.86-0.02 2.82-0.01 1.02-0.03 2.03-0.04 3.07-0.01 1.08-0.02 2.15-0.03 3.26-0.03 3.55-0.07 7.1-0.11 10.6-0.03 2.46-0.05 4.92-0.08 7.38-0.06 6.47-0.13 13-0.2 19.4-0.07 6.61-0.13 13.2-0.2 19.8-0.13 13-0.26 25.9-0.4 38.9 0.89 0 0.89 0 1.8-0.01 14.5-0.09 29-0.15 43.6-0.19 7.02-0.03 14-0.05 21.1-0.1 6.77-0.04 13.6-0.07 20.3-0.08 2.59 0 5.17-0.02 7.75-0.04 3.63-0.03 7.25-0.03 10.9-0.03 1.06-0.02 2.13-0.03 3.23-0.05 8.17 0.05 13.7 1.97 19.9 7.31 4.56 4.91 7.67 10.8 11 16.6 2.97 5.08 6.04 10.1 9.1 15.1 1.11 1.84 2.22 3.68 3.33 5.51 3.89 6.44 7.87 12.8 12.1 19 0.74-0.23 1.48-0.46 2.24-0.7 21.9-6.51 45.8-2.49 65.8 7.65 21.4 11.7 37.3 31.7 44.2 55.1 6.52 24 3.89 48.9-8.12 70.8-4.36 7.56-9.77 14.3-16.2 20.2-0.67 0.67-1.35 1.33-2.04 2.02-17.4 16.6-41.2 24.2-65 24-26.1-0.98-48-12.8-65.8-31.5-4.12-4.45-7.31-9.18-10.2-14.5-0.53-0.94-1.06-1.88-1.61-2.85-11-20.5-13-43.8-7.39-66.2 3.87-12.5 9.78-24 18.4-33.9 1.67-2.21 2.25-3.39 2.6-6.12-0.78-1.91-0.78-1.91-2.14-3.73-0.49-0.71-0.98-1.42-1.48-2.16-0.54-0.76-1.08-1.51-1.63-2.3-1.11-1.6-2.21-3.21-3.32-4.82-0.57-0.82-1.14-1.64-1.72-2.48-2.72-3.97-5.31-8.02-7.9-12.1-2.62-4.45-2.62-4.45-5.81-8.44-3.05-0.12-6.07-0.18-9.11-0.2-1.44-0.02-1.44-0.02-2.9-0.03-3.18-0.03-6.35-0.06-9.53-0.08-2.19-0.02-4.39-0.05-6.58-0.07-5.8-0.05-11.6-0.1-17.4-0.15-5.91-0.05-11.8-0.11-17.7-0.16-11.6-0.11-23.2-0.21-34.8-0.31 0 1.07 0.01 2.13 0.01 3.22 0.14 25.9 0.24 51.8 0.3 77.8 0.03 12.5 0.07 25.1 0.14 37.6 0.06 10.9 0.1 21.8 0.11 32.8 0.01 5.79 0.03 11.6 0.07 17.4 0.04 5.45 0.06 10.9 0.05 16.4 0 1.99 0.01 3.98 0.03 5.97 0.14 12.4-1.09 21.8-6.71 33-0.44 0.9-0.88 1.8-1.34 2.73-1.07 2.16-2.22 4.25-3.41 6.34-0.43 0.74-0.85 1.49-1.29 2.27-6.56 11.4-14.5 21.6-23 31.7-0.7 0.88-1.41 1.76-2.13 2.67-1.84 2.29-3.69 4.37-5.87 6.33h-2l-1 3c-1.57 1.6-1.57 1.6-3.56 3.29-0.73 0.62-1.45 1.23-2.2 1.86-41.8 34.4-92.3 52.2-147 47.5-33.4-3.61-66.2-15.1-93.2-35.3-3.22-2.63-3.22-2.63-7.12-3.1-2.11 0.75-4.19 1.54-6.26 2.4-49.7 20.5-103 23.2-153 2.77-18.9-7.93-35.8-18.4-51.6-31.4-1.12-0.9-1.12-0.9-2.25-1.81-3.76-3.11-6.71-6.42-9.75-10.2-1.66-1.67-3.33-3.34-5-5-29.7-30.7-49.5-76.4-50-119 0.02-0.85 0.03-1.69 0.05-2.56-1.23-0.13-2.45-0.27-3.72-0.41-53.6-6.46-104-34.6-138-77.2-2.61-3.43-5.14-6.91-7.62-10.4-0.46-0.64-0.92-1.28-1.39-1.94-6.11-8.58-11.2-17.4-15.6-27-0.98-2.09-1.99-4.17-3-6.25-12.8-26.8-18.2-56.5-18.2-86.1v-2.13c0.06-40.2 12.4-76.9 32.2-112-0.84-0.26-1.68-0.52-2.55-0.78-21.6-7.6-42.8-22.6-58.4-39.2-0.83-0.82-1.65-1.65-2.5-2.5-0.83-0.82-1.65-1.65-2.5-2.5-0.55-0.5-1.1-1-1.66-1.52-7.11-6.69-12.7-14.6-18.3-22.5-0.42-0.58-0.83-1.16-1.26-1.76-27.4-38.9-37.2-90.6-29.6-137 1.3-7.45 2.87-14.8 4.91-22 0.19-0.68 0.37-1.37 0.57-2.07 2.85-10 6.87-19.4 11.4-28.9 0.48-1.03 0.97-2.06 1.48-3.13 9.55-19.6 23.1-36.6 38.3-51.9 0.61-0.62 1.22-1.24 1.86-1.89 3.87-3.84 7.86-7.05 12.4-10.1-0.6-4.12-2.01-7.1-4-10.8-25-48.1-26.8-106-11.2-157 10.3-32.1 28.2-60 51.2-84.4 0.64-0.68 1.28-1.36 1.94-2.06 21.4-22.1 53.5-43.8 84.1-49.9-0.26-0.93-0.51-1.87-0.77-2.83-7.34-27.7-9.14-55.8-5.23-84.2 0.09-0.68 0.18-1.37 0.27-2.08 2.79-20.2 8.75-39.7 17.7-57.9 0.68-1.42 1.36-2.85 2.04-4.27 3.82-7.93 7.97-15.5 13-22.7 0.74-1.08 1.47-2.17 2.24-3.29 13-18.8 28.4-35.1 46.8-48.7 0.57-0.43 1.13-0.86 1.72-1.3 8.97-6.76 18.3-12.5 28.3-17.7 0.95-0.5 0.95-0.5 1.93-1.02 19.2-10.1 40.6-16.8 62.1-20 0.75-0.11 1.5-0.23 2.27-0.34 27.3-3.98 55-2.05 81.8 4.22 3.98 0.93 7.92 1.62 12 2.12 0.28-0.56 0.56-1.11 0.85-1.69 13.3-26.3 29.9-51.6 53.2-70.3 1.07-0.89 2.14-1.79 3.22-2.69 20.7-17.1 43.5-29.5 68.8-38.3 1.16-0.41 2.32-0.82 3.51-1.24 9.59-3.17 19.6-5.04 29.5-6.76 1.52-0.27 1.52-0.27 3.07-0.55 10-1.63 19.9-1.8 30-1.76zm-31.1 49.3c-0.76 0.16-1.53 0.32-2.31 0.49-30.2 6.56-56.6 22.2-78.7 43.5-1.26 1.17-1.26 1.17-2.55 2.35-11.9 11.4-24.2 26.8-29.4 42.6 0.98 0.48 1.96 0.95 2.97 1.44 14.1 6.87 27.2 14.1 39 24.6 1.46 1.25 1.46 1.25 2.95 2.52 29 25.1 43.4 62.8 46.8 100 0.11 2.07 0.19 4.13 0.25 6.19 0.04 1.25 0.08 2.5 0.12 3.79 0.89 42.8 0.89 42.8-9.12 54.2-6.24 6.14-11.7 7.47-20.3 7.43-5.78-0.18-9.63-1.26-13.7-5.43-6.1-7.66-7.48-13.3-7-23 0.31-2.67 0.64-5.33 1-8 4.11-31.9-2.19-63.8-21.2-90.1-14.6-18.6-36-30.4-59.3-34.4-6.95-1.37-13.7-3.87-20.4-6.09-40.5-13.3-85.5-11.7-124 7.6-29.5 15.8-53.7 37.6-70 67-0.38 0.68-0.75 1.36-1.14 2.05-20.1 36.8-25.9 80.6-14 121 0.71 2.31 1.45 4.61 2.19 6.91 0.44 1.41 0.44 1.41 0.89 2.84 6.45 20.2 13.8 35.3 32.7 46.4 13.5 6.81 28.8 8.85 43.4 4.72 1.65-0.66 3.3-1.35 4.94-2.06 7.54-3.15 15.2-4.12 22.9-1.08 5.93 3.17 11 7.66 13.1 14.1 1.74 8.91 0.52 14.5-3.82 22.2-4.94 6.22-11 7.88-18.4 9.88-0.89 0.25-1.78 0.5-2.7 0.76-30.3 8.39-59.6 5.46-87.1-10-14.9-9.45-26.1-21.4-35.9-35.9-20.4 3.64-40 14.2-56 27-0.85 0.65-1.7 1.3-2.58 1.97-33.1 25.9-53.8 63.4-60.7 105-3.79 32.2 1.23 62.8 14.2 92.3 0.47 1.11 0.94 2.21 1.42 3.35 1.31 2.69 1.31 2.69 3.36 3.67 3.23-0.02 5.71-1.09 8.72-2.27 33-12.4 69.4-10.2 101 3.82 23.1 10.8 50.7 29.7 60.3 54.6 2.33 8.43 0.03 14.7-3.95 22.1-3.38 4.13-7.18 6.06-12.2 7.75-7.4 0.67-14 0.77-20-4-3.54-3.49-6.79-7.2-10-11-2.32-2.68-4.65-5.35-7-8-0.49-0.57-0.99-1.14-1.49-1.73-12.8-13.9-34.2-23.2-52.9-24.4-34.1-0.59-60.8 12-85.3 35.4-27.9 27.4-43.3 64.4-43.6 103 0.13 39.1 15.6 74.7 42.5 103 19.6 19 43.7 32 70.3 38.2 8.22 2.01 14.9 5.1 19.6 12.4 3.6 6.54 3.81 12.6 1.78 19.7-2.38 6.19-6.37 10.7-10.6 15.7-6.37 7.58-11.4 15.8-16.2 24.4-0.65 1.13-1.29 2.25-1.96 3.41-20.5 38.1-22.5 83.3-10.2 124 11.3 35.3 35.1 66.3 66.2 86.4 0.82 0.53 1.63 1.06 2.48 1.61 26.2 16.4 62.4 30.5 93.7 23.3 5.37-1.4 10.6-3.11 15.9-4.94 0.86-0.3 1.73-0.6 2.62-0.91 27.8-9.8 67.9-24.3 82.2-52.4 0.99-2.2 1.93-4.41 2.85-6.64 0.3-0.71 0.59-1.42 0.9-2.15 0.58-1.4 1.15-2.82 1.7-4.24 2.54-6.21 6.04-9.09 11.9-12.5 6.03-2.29 12.7-2.44 18.7-0.05 6.18 3.47 9.46 7.15 12.4 13.6 3.32 14.4-3.23 28-10.2 40.2-12 18.7-28.5 31.3-47 43-1.03 0.66-2.05 1.31-3.11 1.98-18.8 11.4-39.5 18.9-60.4 25.6-0.69 0.21-1.38 0.43-2.09 0.66-1.87 0.6-3.75 1.18-5.62 1.77-2.92 0.85-2.92 0.85-4.83 3.04-1.51 35.7 17.1 70.6 40.2 96.4 25.5 26.8 61.6 42.6 98.5 43.7 29 0.64 59.7-5.82 83.2-23.6 2.12-1.54 4.23-2.72 6.56-3.91 20-10.9 33.1-30.4 39.9-51.6 6.44-22.4 3.36-46.6-7.52-67.1-3.83-7.57-4.87-13.4-2.37-21.6 2.65-6.42 6.59-10.2 12.7-13.4 6.56-2.63 13.6-2.68 20.2 0.1 9.37 5.45 12.5 13.5 16.3 23.3 0.24 0.62 0.48 1.25 0.73 1.89 13.7 35.3 13.3 73.2-1.61 108-7.7 17.3-19 31.8-32.7 44.8 2.77 3.36 6.54 5 10.4 6.88 1.08 0.53 1.08 0.53 2.17 1.06 35.6 17.3 74.6 19.1 112 6.44 21.1-7.57 38.6-19.9 54.6-35.4 0.65-0.59 1.3-1.18 1.98-1.79 9.47-8.77 17.2-20.8 23-32.2 0.4-0.62 0.81-1.24 1.23-1.88 5.72-10 4.46-21.5 4.4-32.7l0.03-7.29c0.01-5.28 0.01-10.6 0-15.8-0.02-7.85-0.01-15.7 0.01-23.5 0.02-14 0.02-28 0.01-42.1-0.02-12.3-0.02-24.5-0.01-36.8v-2.47-9.9c0.02-31 0-62-0.02-92.9-0.03-27.5-0.02-55 0-82.6 0.03-30.9 0.04-61.9 0.02-92.8v-9.89-2.46c-0.01-12.3 0-24.5 0.01-36.8 0.01-13.9 0.01-27.9-0.02-41.8-0.01-7.8-0.01-15.6 0.01-23.4 0.01-5.81-0.01-11.6-0.03-17.4 0-2.36 0-4.72 0.01-7.08 0.02-3.19 0-6.38-0.02-9.58 0.01-0.93 0.02-1.85 0.03-2.81-0.06-4.48-0.17-6.34-3.05-9.94-0.86-0.67-1.73-1.33-2.61-2.02-0.78-0.65-1.56-1.31-2.37-1.99-18.7-14-41.3-20.3-64.6-17.1-12.4 1.97-23.2 6.26-34 12.4-6.24 3.47-13.5 3.92-20.4 2.02-6.38-2.88-10.8-7.82-13.5-14.2-2.15-6.65-1.64-12.7 0.73-19.2 7.91-13.3 29.5-19.9 43.6-23.7 29.3-7.39 63.5-6.91 90.8 7.5 2.7 1.63 2.7 1.63 5.69 0.25 0.1-29.1 0.15-58.3 0.13-87.4-0.01-3.44-0.01-6.89-0.01-10.3v-2.08c-0.01-11.1 0.02-22.2 0.07-33.3 0.04-11.4 0.05-22.8 0.02-34.2-0.02-6.4-0.01-12.8 0.03-19.2 0.04-6.02 0.04-12-0.01-18.1 0-2.2 0.01-4.41 0.04-6.62 0.51-11.6 0.51-11.6-3.46-22.1-2.5-2.3-4.87-4.04-7.81-5.73-0.63-0.43-1.25-0.87-1.9-1.32-18-12.4-41.7-17.2-63.2-13.3-12.2 2.47-23.2 6.78-33.8 13.3-6.13 3.67-12.2 3.94-19.2 3.29-6.02-1.87-11.2-4.68-14.3-10.3-3.36-7.67-3.83-13.8-0.79-21.7 4.22-8.29 10.2-11.7 18-16.1 0.95-0.54 1.9-1.08 2.88-1.63 29.5-15.7 66.7-18.9 98.7-9.62 6.55 2.05 12.9 4.55 19.2 7.33 2.16 1.05 2.16 1.05 4.26 0.92 0-0.69 0-1.37 0.01-2.08 0.11-22.8 0.23-45.5 0.36-68.2 0.01-0.88 0.01-1.76 0.02-2.66 0.34-59.2 0.99-118 2.01-177 0.17-9.48 0.32-19 0.45-28.4 0.09-5.65 0.19-11.3 0.33-16.9 0.07-3 0.11-6 0.15-9.01 0.04-1.88 0.09-3.76 0.15-5.65 0.09-8.15-1.87-14.2-5.48-21.5-0.51-1.06-0.51-1.06-1.03-2.14-19.2-39-53-68.6-94-82.9-27.5-8.72-56.6-11.2-85-5zm385 155c-8.22 11.1-11.2 22.3-10 36 1.94 11.6 8.67 21.2 17.8 28.4 9.42 6.53 21 8.95 32.2 7.6 14.2-3.13 23.7-11.2 32.1-22.9 5.5-10.1 5.91-22.2 2.94-33.1-4.14-11.3-11.9-21.8-23-27-18.5-7.49-38.3-3.9-52 11zm216 2.21c-7.43 10.3-8.87 21.4-8.01 33.8 2.04 10.4 7.54 20 15.9 26.6 10.4 6.9 22.2 11.4 34.7 8.84 13.3-3.35 23.9-10.2 31.2-22.2 5.19-10 6.03-22.4 3.46-33.4-0.93-2.44-1.97-4.63-3.27-6.9-0.41-0.72-0.82-1.45-1.24-2.2-6.79-11.4-15.7-17.6-28.5-21.1-17.5-3.56-32.8 3.37-44.2 16.6zm253 270c-8.23 9.97-13.2 21.9-12 35 2.08 12.8 7.84 22.9 18 31 11.3 7.12 21.9 9.14 35 7 10.8-2.55 20.5-8.76 26.8-18 6.97-11.6 9.24-23.3 6.15-36.6-3.78-12.1-11.9-21.4-23-27.2-17.4-7.95-37.2-4.86-50.9 8.87zm-3.99 533c-7.43 10.3-8.87 21.4-8.01 33.8 2.34 11.9 9.12 22 19 29 10.3 6.56 22 8.39 34 6 11.9-3.71 22.4-10.6 28.5-21.8 5.1-10.9 6.82-23.6 2.8-35.2-5.28-12.4-12.9-21-25.5-26.3-19.6-6.63-37.5-0.86-50.8 14.5zm-465 272c-8.77 10.7-11.3 22.6-10.2 36.2 2.06 10.4 7.53 20 15.9 26.6 11.9 7.88 23 10.8 37.1 8.37 11.8-3.26 21.8-10.7 28.3-21.1 5.68-10.8 6.89-22.2 3.69-33.9-1.96-5.49-4.61-10.2-8-15-0.99-1.48-0.99-1.48-2-3h-2v-2c-20-15.3-45.1-15-62.8 3.81zm218-0.81c-8.25 11.1-12.3 22.4-10.6 36.4 2.36 11.8 8.17 21.1 17.6 28.6 11.3 7.12 21.9 9.14 35 7 10.8-2.55 20.5-8.76 26.8-18 6.66-11 8.9-21.9 6.74-34.8-3.11-11.7-10.2-21-20.3-27.5-18.6-10.5-40.3-6.73-55.2 8.25z" fill="#000100"/>
<path transform="translate(539 912)" d="m0 0c7.8 6.81 9.28 14 10.8 23.9 3.46 21.8 14.1 44.2 32.3 57.6 20.1 14 39.5 19.1 63.7 19.2 9.37 0.04 16.6 0.14 23.9 6.58 0.54 0.65 1.08 1.3 1.64 1.97 0.83 0.98 0.83 0.98 1.68 1.97 4.11 5.97 4.18 12.1 3.44 19.1-2.11 6.96-6.98 12-13 16-22.3 7.31-51.6 3.91-73-5-0.6-0.25-1.21-0.5-1.84-0.75-34.9-14.2-62.1-39.7-77.2-74.2-6.6-15.7-15.7-39.3-10-56 3.72-6.53 8.47-11.3 15.6-13.9 7.63-2.06 15.3-1 21.9 3.5z" fill="#000100"/>
<path transform="translate(444 595)" d="m0 0c35.1-0.96 69.8 13.1 95.2 36.9 0.75 0.73 1.51 1.45 2.29 2.19 1.1 1.01 1.1 1.01 2.22 2.04 9.91 9.36 19.4 20.6 21.2 34.4-0.84 6.83-3.44 13.7-8.43 18.6-3.74 2.63-7.42 4.57-12 5-0.97 0.12-0.97 0.12-1.96 0.23-6.64 0.44-11.6-1.46-17-5.23-2.98-2.77-5.49-5.81-8-9-1.63-2-3.25-4-4.88-6-1.11-1.39-1.11-1.39-2.24-2.81-1.7-2.25-1.7-2.25-3.88-3.19v-2c-0.55-0.24-1.09-0.48-1.65-0.73-2.92-1.56-5.44-3.49-8.1-5.45-19.6-13.8-43.8-18.8-67.3-14.7-9.31 1.82-17.9 5.36-26.4 9.6-8.53 4.26-15.5 6.04-24.8 3.21-6.87-3.02-11.4-8.67-14.1-15.6-1.9-6.86-1-12.7 1.78-19.2 4.05-5.74 10-9.43 16.2-12.6 0.72-0.38 1.45-0.76 2.19-1.15 18.8-9.5 38.8-13.5 59.6-14.5z" fill="#000100"/>
<path transform="translate(336,915)" d="m0 0c4.75 2.95 8.03 6.77 10 12 0.55 5.72 0.34 11.4 0.12 17.1-0.86 26 6.07 47.8 22.9 67.9 0.55 0.67 1.1 1.34 1.67 2.02 9.24 10.2 22.7 16.8 35.4 21.5 0.71 0.26 1.42 0.52 2.15 0.79 1.39 0.51 2.78 1 4.17 1.49 8.08 2.9 14.6 7.5 18.7 15.2 2.8 6.78 2.57 12.9 0.05 19.8-2.83 5.89-6.85 10-12.8 12.8-15 4.98-33.2-3.82-46.6-10.4-9.8-5.06-18.6-10.7-26.8-18.1-1.02-0.93-1.02-0.93-2.06-1.88-10.2-9.43-18.8-19.2-25.9-31.1-0.41-0.68-0.81-1.36-1.23-2.06-6.16-10.5-10.4-21.3-13.8-32.9-0.32-1.05-0.63-2.09-0.96-3.17-4.36-15.6-4.82-32.1-3.23-48.1 0.07-0.76 0.14-1.51 0.21-2.29 0.9-8.05 3.67-15 9.98-20.4 10-5.7 17.9-5.02 28 0z" fill="#000100"/>
</svg>
